<svg xmlns="http://www.w3.org/2000/svg" viewBox="0 0 200 110"><g name="Layer 1" fill="#fff"><path d="m61.1884 35.7555c0-5.6536-2.292-11.0017-6.2648-15.7385 6.5704-1.8336 13.7521-2.9032 21.545-3.2088v-1.9865c-8.4041 0-16.3498 1.0696-23.5314 2.7505-10.3905-10.39053-29.7963-17.5722-52.105363-17.5722v7.94567c16.808163.61123 31.477163 5.95923 40.492363 13.59933-15.2801 6.5705-25.365 17.1138-25.365 29.0323 0 5.6536 2.292 11.0017 6.2649 15.7385-6.5705 1.8336-13.75219 2.9032-21.545065 3.2088v1.9865c8.404085 0 16.349765-1.0696 23.531465-2.7505 10.5433 10.5433 29.9491 17.725 52.1053 17.725v-7.9457c-16.8082-.6112-31.4771-5.9592-40.4924-13.5993 15.4329-6.5705 25.365-17.1138 25.365-29.1851m-34.8387 11.1545c0-9.4737 6.7233-17.4193 17.5722-22.7674 4.4312 4.5841 6.876 9.9321 6.876 15.433 0 9.4737-6.7232 17.4193-17.5721 22.7674-4.2785-4.5841-6.8761-9.7793-6.8761-15.433"/><path d="m122.003 48.2852h13.905c13.294 0 22.615 4.1257 22.615 18.9474 0 14.2106-9.627 19.253-22.615 19.253h-13.905v-38.2004m10.238 30.7131h3.973c7.64 0 11.918-3.9728 11.918-11.6129 0-7.6401-4.431-11.6129-11.918-11.6129h-3.973v23.2258"/><path d="m193.209 85.5688c-2.903.764-6.112 1.528-11.307 1.528-10.238 0-22.004-5.1952-22.004-19.5586 0-13.2937 9.321-19.8642 21.851-19.8642 3.82 0 7.64.9168 11.307 1.9865l-.764 8.2512c-3.362-1.8336-6.418-2.7504-9.932-2.7504-7.182 0-11.919 5.1953-11.919 12.3769 0 7.4873 5.349 12.0713 12.836 12.0713 3.361 0 6.723-.9168 9.473-1.9864l.459 7.9457"/><path d="m86.8591 48.2852h20.1699c7.182 0 12.377 3.0561 12.377 9.6265 0 4.8897-2.445 7.4873-6.723 8.8625v.1528c5.042 1.0696 7.792 3.8201 7.792 8.4041 0 9.1681-8.098 11.0017-14.974 11.0017h-18.6419v-38.0476m10.2377 31.0187h5.5012c3.667 0 7.64-.6112 7.64-4.4312 0-4.1256-3.973-4.5841-7.488-4.5841h-5.6532v9.0153m0-15.8913h5.3482c3.361 0 6.723-.764 6.723-3.9729 0-3.5144-3.362-3.82-6.723-3.82h-5.3482v7.7929"/><path d="m195.959 70.2886l3.362-2.9032-.611-.1528c-.153-.1528-.306-.1528-.153-.4584l.458-2.1392-1.528.4584c-.305.1528-.458.1528-.611-.1528l-.305-.6112-1.528 2.292c-.306.4584-.612.1528-.612-.1528l.612-3.9728-1.07.764c-.306.1528-.459 0-.611-.1528l-1.223-2.5976-1.222 2.5976c-.153.1528-.306.3056-.611.1528l-1.07-.764.611 3.9728c.153.4584-.305.6112-.611.1528l-1.528-2.292-.306.6112c-.152.3056-.305.3056-.611.1528l-1.528-.4584.459 2.1392c0 .3056 0 .4584-.153.4584l-.611.1528 3.361 2.9032c.459.4584.459.4584.306 1.0697l-.306.6112 3.056-.6112c.611-.1528.459.3056.459.3056l-.153 3.5144h.153.152.153l-.153-3.5144c0 0-.152-.4584.459-.3056l3.056.6112-.306-.6112c.306-.764.306-.6113.764-1.0697"/></g></svg>