<svg xmlns="http://www.w3.org/2000/svg" viewBox="0 0 200 72"><g name="Layer 1"><path d="m.230747 70.6663v-69.23325h10.076453v56.21585h.2411l27.24-40.9807 10.0283-15.23515v18.07975 38.1361h.0964l37.4612-56.21585h12.4871l-47.7306 69.23325h-12.3424v-36.3523l-25.2151 36.3523h-12.342453"/><path d="m123.607 1.52947v69.13683h-10.077v-56.1194h-.096l-37.3649 56.1194h-12.3424l47.4893-69.13683h12.391"/><path d="m151.28 4.13296c-4.242 1.78382-7.955 4.24275-11.088 7.37644-3.134 3.1339-5.593 6.798-7.424 11.0408-1.833 4.1945-2.701 8.7265-2.701 13.5959 0 4.7248.916 9.2086 2.701 13.3549 1.831 4.1945 4.29 7.8586 7.472 10.9925 3.182 3.1338 6.846 5.5926 11.089 7.4247 4.194 1.8321 8.726 2.6999 13.499 2.6999 5.256 0 10.076-1.0125 14.464-3.0374l-5.255-7.5694c-2.7 1.1572-5.785 1.7356-9.209 1.7356-5.207 0-9.787-1.3017-13.692-3.9051-3.905-2.6035-6.894-6.2677-9.016-11.0407-.674-1.7357-1.205-3.4714-1.591-5.3034-.386-1.832-.579-3.616-.579-5.3998 0-1.9285.193-3.7606.579-5.5926.386-1.8321.917-3.5196 1.591-5.1106 2.025-4.8213 5.014-8.5336 8.968-11.1853 3.953-2.6517 8.533-3.9534 13.74-3.9534 3.616 0 6.943.675 10.029 2.0731 3.037 1.3982 5.689 3.2784 7.907 5.6408 2.217 2.3624 3.953 5.1106 5.158 8.2444 1.206 3.1338 1.833 6.5087 1.833 10.0764 0 3.0375-.531 5.9784-1.543 8.9676-.965 2.4588-2.074 4.5319-3.327 6.1712-.868 1.35-1.88 2.5552-2.99 3.616-1.157 1.0606-2.313 1.9766-3.567 2.8445l3.423 4.773 1.735 2.507 3.761 5.4481h11.09l-7.956-11.2336c2.893-2.9891 5.159-6.5086 6.798-10.4621 1.639-3.9534 2.459-8.1961 2.459-12.6799 0-4.8694-.868-9.4014-2.652-13.5959-1.784-4.1945-4.242-7.9069-7.377-11.0407-3.133-3.13377-6.845-5.5927-11.088-7.42478-4.291-1.83204-8.823-2.74806-13.693-2.74806-4.773 0-9.305.91602-13.548 2.6999"/></g></svg>
