<?xml version="1.0"?>
<svg version="1.1" xmlns="http://www.w3.org/2000/svg" xmlns:xlink="http://www.w3.org/1999/xlink" width="200" height="110">
    <desc iVinci="yes" version="4.6" gridStep="20" showGrid="no" snapToGrid="no" codePlatform="0"/>
    <g id="Layer1" name="Layer 1" opacity="1">
        <g id="Shape1">
            <desc shapeID="1" type="0" basicInfo-basicType="0" basicInfo-roundedRectRadius="12" basicInfo-polygonSides="6" basicInfo-starPoints="5" bounding="rect(-48.0484,-34.0728,96.0968,68.1456)" text="" font-familyName="" font-pixelSize="20" font-bold="0" font-underline="0" font-alignment="1" strokeStyle="0" markerStart="0" markerEnd="0" shadowEnabled="0" shadowOffsetX="0" shadowOffsetY="2" shadowBlur="4" shadowOpacity="160" blurEnabled="0" blurRadius="4" transform="matrix(1,0,0,1,50.0297,42.2344)" pers-center="0,0" pers-size="0,0" pers-start="0,0" pers-end="0,0" locked="0" mesh="" flag=""/>
            <path id="shapePath1" d="M1.98132,76.3072 L1.98132,8.1616 L11.8995,8.1616 L11.8995,63.4943 L12.1368,63.4943 L38.9489,23.1574 L48.8196,8.1616 L48.8196,25.9573 L48.8196,63.4943 L48.9145,63.4943 L85.7872,8.1616 L98.0781,8.1616 L51.0974,76.3072 L38.9489,76.3072 L38.9489,40.526 L14.1299,76.3072 L1.98132,76.3072 Z" style="stroke:none;fill-rule:evenodd;fill:#ffffff;fill-opacity:1;"/>
        </g>
        <g id="Shape2">
            <desc shapeID="2" type="0" basicInfo-basicType="0" basicInfo-roundedRectRadius="12" basicInfo-polygonSides="6" basicInfo-starPoints="5" bounding="rect(-29.4696,-34.0253,58.9392,68.0507)" text="" font-familyName="" font-pixelSize="20" font-bold="0" font-underline="0" font-alignment="1" strokeStyle="0" markerStart="0" markerEnd="0" shadowEnabled="0" shadowOffsetX="0" shadowOffsetY="2" shadowBlur="4" shadowOpacity="160" blurEnabled="0" blurRadius="4" transform="matrix(1,0,0,1,93.9494,42.2819)" pers-center="0,0" pers-size="0,0" pers-start="0,0" pers-end="0,0" locked="0" mesh="" flag=""/>
            <path id="shapePath2" d="M123.419,8.25652 L123.419,76.3072 L113.501,76.3072 L113.501,21.0694 L113.406,21.0694 L76.6283,76.3072 L64.4798,76.3072 L111.223,8.25652 L123.419,8.25652 Z" style="stroke:none;fill-rule:evenodd;fill:#ffffff;fill-opacity:1;"/>
        </g>
        <g id="Shape3">
            <desc shapeID="3" type="0" basicInfo-basicType="0" basicInfo-roundedRectRadius="12" basicInfo-polygonSides="6" basicInfo-starPoints="5" bounding="rect(-34.239,-34.0491,68.478,68.0982)" text="" font-familyName="" font-pixelSize="20" font-bold="0" font-underline="0" font-alignment="1" strokeStyle="0" markerStart="0" markerEnd="0" shadowEnabled="0" shadowOffsetX="0" shadowOffsetY="2" shadowBlur="4" shadowOpacity="160" blurEnabled="0" blurRadius="4" transform="matrix(1,0,0,1,164.017,42.2107)" pers-center="0,0" pers-size="0,0" pers-start="0,0" pers-end="0,0" locked="0" mesh="" flag=""/>
            <path id="shapePath3" d="M150.658,10.8191 C146.482,12.5749 142.828,14.9952 139.744,18.0797 C136.659,21.1643 134.239,24.7709 132.436,28.947 C130.632,33.0756 129.778,37.5364 129.778,42.3293 C129.778,46.9799 130.68,51.3933 132.436,55.4744 C134.239,59.603 136.659,63.2096 139.791,66.2942 C142.923,69.3788 146.53,71.799 150.706,73.6023 C154.834,75.4056 159.295,76.2598 163.993,76.2598 C169.166,76.2598 173.911,75.2632 178.23,73.2701 L173.057,65.8196 C170.4,66.9586 167.363,67.528 163.993,67.528 C158.868,67.528 154.36,66.2467 150.516,63.6842 C146.672,61.1216 143.73,57.515 141.642,52.8169 C140.978,51.1085 140.455,49.4001 140.076,47.5969 C139.696,45.7936 139.506,44.0377 139.506,42.2819 C139.506,40.3837 139.696,38.5804 140.076,36.7771 C140.455,34.9738 140.978,33.3128 141.642,31.7468 C143.635,27.0013 146.577,23.3473 150.469,20.7372 C154.36,18.1272 158.868,16.8459 163.993,16.8459 C167.552,16.8459 170.827,17.5103 173.864,18.8865 C176.854,20.2627 179.464,22.1134 181.647,24.4387 C183.829,26.764 185.538,29.469 186.724,32.5536 C187.911,35.6381 188.528,38.96 188.528,42.4717 C188.528,45.4614 188.006,48.3561 187.009,51.2984 C186.06,53.7186 184.968,55.7591 183.735,57.3726 C182.88,58.7014 181.884,59.8877 180.792,60.9318 C179.653,61.9758 178.515,62.8774 177.281,63.7316 L180.65,68.4297 L182.358,70.8973 L186.06,76.2598 L196.975,76.2598 L189.144,65.2027 C191.992,62.2605 194.222,58.7963 195.836,54.9049 C197.449,51.0136 198.256,46.8376 198.256,42.4242 C198.256,37.6313 197.402,33.1705 195.646,29.0419 C193.89,24.9133 191.47,21.2592 188.385,18.1746 C185.301,15.0901 181.647,12.6698 177.471,10.8665 C173.247,9.06325 168.786,8.16161 163.993,8.16161 C159.295,8.16161 154.834,9.06325 150.658,10.8191 Z" style="stroke:none;fill-rule:evenodd;fill:#ffffff;fill-opacity:1;"/>
        </g>
        <g id="Shape4">
            <desc shapeID="4" type="0" basicInfo-basicType="0" basicInfo-roundedRectRadius="12" basicInfo-polygonSides="6" basicInfo-starPoints="5" bounding="rect(-9.7048,-11.0335,19.4096,22.0669)" text="" font-familyName="" font-pixelSize="20" font-bold="0" font-underline="0" font-alignment="1" strokeStyle="0" markerStart="0" markerEnd="0" shadowEnabled="0" shadowOffsetX="0" shadowOffsetY="2" shadowBlur="4" shadowOpacity="160" blurEnabled="0" blurRadius="4" transform="matrix(1,0,0,1,94.1632,95.4556)" pers-center="0,0" pers-size="0,0" pers-start="0,0" pers-end="0,0" locked="0" mesh="" flag=""/>
            <path id="shapePath4" d="M99.9288,93.5335 C99.9288,92.1098 99.3594,90.7336 98.3628,89.4998 C100.024,89.0252 101.874,88.7405 103.868,88.693 L103.868,88.2185 C101.732,88.2185 99.6915,88.4558 97.8408,88.9303 C95.1833,86.2254 90.2005,84.4221 84.5059,84.4221 L84.5059,86.4626 C88.7768,86.6525 92.5258,87.9812 94.8511,89.9269 C90.9123,91.5878 88.3972,94.2927 88.3972,97.3773 C88.3972,98.801 88.9667,100.177 89.9632,101.411 C88.3023,101.886 86.4516,102.17 84.4584,102.218 L84.4584,102.692 C86.5939,102.692 88.6345,102.455 90.4852,101.98 C93.1427,104.685 98.1255,106.489 103.773,106.489 L103.773,104.448 C99.5017,104.258 95.7528,102.93 93.4275,100.984 C97.3662,99.323 99.9288,96.618 99.9288,93.5335 M91.0072,96.3808 C91.0072,93.9605 92.7156,91.9674 95.5155,90.5912 C96.6069,91.7776 97.2713,93.1064 97.2713,94.53 C97.2713,96.9502 95.5629,98.9433 92.7631,100.32 C91.6716,99.1332 91.0072,97.8044 91.0072,96.3808 Z" style="stroke:none;fill-rule:evenodd;fill:#ffffff;fill-opacity:1;"/>
        </g>
        <g id="Shape5">
            <desc shapeID="5" type="0" basicInfo-basicType="0" basicInfo-roundedRectRadius="12" basicInfo-polygonSides="6" basicInfo-starPoints="5" bounding="rect(-4.674,-4.8878,9.348,9.7756)" text="" font-familyName="" font-pixelSize="20" font-bold="0" font-underline="0" font-alignment="1" strokeStyle="0" markerStart="0" markerEnd="0" shadowEnabled="0" shadowOffsetX="0" shadowOffsetY="2" shadowBlur="4" shadowOpacity="160" blurEnabled="0" blurRadius="4" transform="matrix(1,0,0,1,120.121,101.648)" pers-center="0,0" pers-size="0,0" pers-start="0,0" pers-end="0,0" locked="0" mesh="" flag=""/>
            <path id="shapePath5" d="M115.447,96.7604 L119.006,96.7604 C122.423,96.7604 124.795,97.8044 124.795,101.601 C124.795,105.255 122.328,106.536 119.006,106.536 L115.447,106.536 L115.447,96.7604 M118.009,104.543 L119.006,104.543 C120.951,104.543 122.043,103.546 122.043,101.601 C122.043,99.6552 120.904,98.6586 119.006,98.6586 L118.009,98.6586 L118.009,104.543 Z" style="stroke:none;fill-rule:evenodd;fill:#ffffff;fill-opacity:1;"/>
        </g>
        <g id="Shape6">
            <desc shapeID="6" type="0" basicInfo-basicType="0" basicInfo-roundedRectRadius="12" basicInfo-polygonSides="6" basicInfo-starPoints="5" bounding="rect(-4.2475,-5.0302,8.495,10.0604)" text="" font-familyName="" font-pixelSize="20" font-bold="0" font-underline="0" font-alignment="1" strokeStyle="0" markerStart="0" markerEnd="0" shadowEnabled="0" shadowOffsetX="0" shadowOffsetY="2" shadowBlur="4" shadowOpacity="160" blurEnabled="0" blurRadius="4" transform="matrix(1,0,0,1,129.327,101.601)" pers-center="0,0" pers-size="0,0" pers-start="0,0" pers-end="0,0" locked="0" mesh="" flag=""/>
            <path id="shapePath6" d="M133.575,106.251 C132.815,106.441 132.008,106.631 130.68,106.631 C128.07,106.631 125.08,105.302 125.08,101.648 C125.08,98.2315 127.453,96.5706 130.68,96.5706 C131.676,96.5706 132.625,96.8079 133.575,97.0926 L133.385,99.1806 C132.531,98.7061 131.724,98.5162 130.822,98.5162 C128.971,98.5162 127.785,99.845 127.785,101.696 C127.785,103.594 129.161,104.78 131.059,104.78 C131.914,104.78 132.768,104.543 133.48,104.258 L133.575,106.251 Z" style="stroke:none;fill-rule:evenodd;fill:#ffffff;fill-opacity:1;"/>
        </g>
        <g id="Shape7">
            <desc shapeID="7" type="0" basicInfo-basicType="0" basicInfo-roundedRectRadius="12" basicInfo-polygonSides="6" basicInfo-starPoints="5" bounding="rect(-4.2945,-4.8643,8.589,9.7286)" text="" font-familyName="" font-pixelSize="20" font-bold="0" font-underline="0" font-alignment="1" strokeStyle="0" markerStart="0" markerEnd="0" shadowEnabled="0" shadowOffsetX="0" shadowOffsetY="2" shadowBlur="4" shadowOpacity="160" blurEnabled="0" blurRadius="4" transform="matrix(1,0,0,1,110.772,101.625)" pers-center="0,0" pers-size="0,0" pers-start="0,0" pers-end="0,0" locked="0" mesh="" flag=""/>
            <path id="shapePath7" d="M106.478,96.7604 L111.603,96.7604 C113.406,96.7604 114.782,97.5672 114.782,99.2281 C114.782,100.462 114.165,101.126 113.074,101.506 L113.074,101.553 C114.355,101.838 115.067,102.502 115.067,103.689 C115.067,106.014 113.026,106.489 111.271,106.489 L106.525,106.489 L106.525,96.7604 L106.478,96.7604 M109.04,104.638 L110.464,104.638 C111.413,104.638 112.41,104.496 112.41,103.499 C112.41,102.455 111.366,102.36 110.511,102.36 L109.088,102.36 L109.088,104.638 L109.04,104.638 M109.04,100.604 L110.416,100.604 C111.271,100.604 112.172,100.414 112.172,99.5603 C112.172,98.6586 111.318,98.5637 110.464,98.5637 L109.088,98.5637 L109.088,100.604 L109.04,100.604 Z" style="stroke:none;fill-rule:evenodd;fill:#ffffff;fill-opacity:1;"/>
        </g>
        <g id="Shape8">
            <desc shapeID="8" type="0" basicInfo-basicType="0" basicInfo-roundedRectRadius="12" basicInfo-polygonSides="6" basicInfo-starPoints="5" bounding="rect(-1.75601,-1.94576,3.51201,3.8915)" text="" font-familyName="" font-pixelSize="20" font-bold="0" font-underline="0" font-alignment="1" strokeStyle="0" markerStart="0" markerEnd="0" shadowEnabled="0" shadowOffsetX="0" shadowOffsetY="2" shadowBlur="4" shadowOpacity="160" blurEnabled="0" blurRadius="4" transform="matrix(1,0,0,1,133.432,101.743)" pers-center="0,0" pers-size="0,0" pers-start="0,0" pers-end="0,0" locked="0" mesh="" flag=""/>
            <path id="shapePath8" d="M134.334,102.36 L135.188,101.601 L135.046,101.553 C134.998,101.553 134.998,101.506 134.998,101.411 L135.093,100.841 L134.713,100.984 C134.666,100.984 134.619,101.031 134.571,100.936 L134.476,100.794 L134.097,101.364 C134.002,101.458 133.907,101.411 133.954,101.316 L134.144,100.319 L133.859,100.509 C133.812,100.557 133.717,100.509 133.717,100.462 L133.432,99.7975 L133.147,100.462 C133.147,100.509 133.053,100.557 133.005,100.509 L132.72,100.319 L132.91,101.316 C132.91,101.411 132.815,101.458 132.768,101.364 L132.388,100.794 L132.293,100.936 C132.246,101.031 132.198,101.031 132.151,100.984 L131.771,100.841 L131.866,101.411 C131.866,101.506 131.866,101.506 131.819,101.553 L131.676,101.601 L132.531,102.36 C132.625,102.455 132.673,102.455 132.578,102.645 L132.531,102.835 L133.337,102.692 C133.48,102.692 133.432,102.787 133.432,102.787 L133.385,103.689 L133.432,103.689 L133.48,103.689 L133.527,103.689 L133.527,102.787 C133.527,102.787 133.48,102.692 133.622,102.692 L134.429,102.835 L134.381,102.645 C134.191,102.455 134.191,102.455 134.334,102.36 Z" style="stroke:none;fill-rule:evenodd;fill:#ffffff;fill-opacity:1;"/>
        </g>
        <g id="Shape9">
            <desc shapeID="9" type="0" basicInfo-basicType="0" basicInfo-roundedRectRadius="12" basicInfo-polygonSides="6" basicInfo-starPoints="5" bounding="rect(-4.29616,-5.81325,8.59232,11.6265)" text="" font-familyName="" font-pixelSize="20" font-bold="0" font-underline="0" font-alignment="1" strokeStyle="0" markerStart="0" markerEnd="0" shadowEnabled="0" shadowOffsetX="0" shadowOffsetY="2" shadowBlur="4" shadowOpacity="160" blurEnabled="0" blurRadius="4" transform="matrix(1,0,0,1,184.709,88.8591)" pers-center="0,0" pers-size="0,0" pers-start="0,0" pers-end="0,0" locked="0" mesh="" flag=""/>
            <path id="shapePath9" d="M187.721,83.0459 L185.49,86.8897 L183.165,86.8897 L180.413,91.6353 L182.738,91.6353 L180.982,94.6724 L186.677,94.6724 C188.148,92.8691 189.002,90.5912 189.002,88.1236 C189.05,86.2728 188.575,84.5644 187.721,83.0459 Z" style="stroke:none;fill-rule:evenodd;fill:#ffffff;fill-opacity:1;"/>
        </g>
        <g id="Shape10">
            <desc shapeID="10" type="0" basicInfo-basicType="0" basicInfo-roundedRectRadius="12" basicInfo-polygonSides="6" basicInfo-starPoints="5" bounding="rect(-7.569,-6.1692,15.138,12.3384)" text="" font-familyName="" font-pixelSize="20" font-bold="0" font-underline="0" font-alignment="1" strokeStyle="0" markerStart="0" markerEnd="0" shadowEnabled="0" shadowOffsetX="0" shadowOffsetY="2" shadowBlur="4" shadowOpacity="160" blurEnabled="0" blurRadius="4" transform="matrix(1,0,0,1,175.928,88.5032)" pers-center="0,0" pers-size="0,0" pers-start="0,0" pers-end="0,0" locked="0" mesh="" flag=""/>
            <path id="shapePath10" d="M176.379,94.6724 L183.497,82.334 L177.471,82.334 L173.389,89.4523 L169.688,82.9984 C168.834,84.517 168.359,86.2254 168.359,88.1236 C168.359,90.5912 169.213,92.8691 170.684,94.6724 L176.379,94.6724 Z" style="stroke:none;fill-rule:evenodd;fill:#ffffff;fill-opacity:1;"/>
        </g>
        <g id="Shape11">
            <desc shapeID="11" type="0" basicInfo-basicType="0" basicInfo-roundedRectRadius="12" basicInfo-polygonSides="6" basicInfo-starPoints="5" bounding="rect(-3.27449,-3.7015,6.549,7.403)" text="" font-familyName="" font-pixelSize="20" font-bold="0" font-underline="0" font-alignment="1" strokeStyle="0" markerStart="0" markerEnd="0" shadowEnabled="0" shadowOffsetX="0" shadowOffsetY="2" shadowBlur="4" shadowOpacity="160" blurEnabled="0" blurRadius="4" transform="matrix(1,0,0,1,162.332,103.024)" pers-center="0,0" pers-size="0,0" pers-start="0,0" pers-end="0,0" locked="0" mesh="" flag=""/>
            <path id="shapePath11" d="M164.753,105.777 C164.183,106.394 163.376,106.726 162.332,106.726 C161.288,106.726 160.482,106.394 159.912,105.777 C159.343,105.16 159.058,104.258 159.058,103.024 C159.058,101.791 159.343,100.889 159.912,100.272 C160.482,99.6552 161.288,99.323 162.332,99.323 C163.376,99.323 164.183,99.6552 164.753,100.272 C165.322,100.889 165.607,101.791 165.607,103.024 C165.607,104.258 165.322,105.16 164.753,105.777 M164.231,100.794 C163.803,100.272 163.187,100.035 162.332,100.035 C161.526,100.035 160.909,100.272 160.434,100.794 C160.007,101.316 159.77,102.075 159.77,103.072 C159.77,104.068 160.007,104.828 160.434,105.35 C160.861,105.872 161.478,106.109 162.332,106.109 C163.139,106.109 163.756,105.872 164.231,105.35 C164.658,104.828 164.895,104.068 164.895,103.072 C164.847,102.028 164.658,101.269 164.231,100.794 Z" style="stroke:none;fill-rule:evenodd;fill:#ffffff;fill-opacity:1;"/>
        </g>
        <g id="Shape12">
            <desc shapeID="12" type="0" basicInfo-basicType="0" basicInfo-roundedRectRadius="12" basicInfo-polygonSides="6" basicInfo-starPoints="5" bounding="rect(-2.8475,-3.60654,5.69501,7.2131)" text="" font-familyName="" font-pixelSize="20" font-bold="0" font-underline="0" font-alignment="1" strokeStyle="0" markerStart="0" markerEnd="0" shadowEnabled="0" shadowOffsetX="0" shadowOffsetY="2" shadowBlur="4" shadowOpacity="160" blurEnabled="0" blurRadius="4" transform="matrix(1,0,0,1,169.023,103.024)" pers-center="0,0" pers-size="0,0" pers-start="0,0" pers-end="0,0" locked="0" mesh="" flag=""/>
            <path id="shapePath12" d="M169.071,105.302 L171.206,99.6552 C171.254,99.5128 171.396,99.4179 171.539,99.4179 C171.634,99.4179 171.728,99.4654 171.776,99.5128 C171.823,99.5603 171.871,99.6552 171.871,99.7501 C171.871,99.7976 171.871,99.845 171.823,99.8925 L169.356,106.394 C169.308,106.536 169.166,106.631 169.024,106.631 C168.834,106.631 168.739,106.536 168.691,106.394 L166.224,99.8925 C166.224,99.845 166.176,99.7976 166.176,99.7501 C166.176,99.6552 166.224,99.5603 166.271,99.5128 C166.319,99.4654 166.413,99.4179 166.508,99.4179 C166.698,99.4179 166.793,99.5128 166.841,99.6552 L169.071,105.302 Z" style="stroke:none;fill-rule:evenodd;fill:#ffffff;fill-opacity:1;"/>
        </g>
        <g id="Shape13">
            <desc shapeID="13" type="0" basicInfo-basicType="0" basicInfo-roundedRectRadius="12" basicInfo-polygonSides="6" basicInfo-starPoints="5" bounding="rect(-2.4915,-3.5828,4.983,7.1656)" text="" font-familyName="" font-pixelSize="20" font-bold="0" font-underline="0" font-alignment="1" strokeStyle="0" markerStart="0" markerEnd="0" shadowEnabled="0" shadowOffsetX="0" shadowOffsetY="2" shadowBlur="4" shadowOpacity="160" blurEnabled="0" blurRadius="4" transform="matrix(1,0,0,1,175.501,103.048)" pers-center="0,0" pers-size="0,0" pers-start="0,0" pers-end="0,0" locked="0" mesh="" flag=""/>
            <path id="shapePath13" d="M177.328,103.262 L173.674,103.262 L173.674,106.299 C173.674,106.394 173.627,106.489 173.579,106.536 C173.532,106.584 173.437,106.631 173.342,106.631 C173.247,106.631 173.152,106.584 173.105,106.536 C173.057,106.489 173.01,106.394 173.01,106.299 L173.01,99.7975 C173.01,99.7026 173.057,99.6077 173.105,99.5603 C173.152,99.5128 173.247,99.4654 173.342,99.4654 C173.437,99.4654 173.532,99.5128 173.579,99.5603 C173.627,99.6077 173.674,99.7026 173.674,99.7975 L173.674,102.645 L177.328,102.645 L177.328,99.7975 C177.328,99.7026 177.376,99.6077 177.423,99.5603 C177.471,99.5128 177.565,99.4654 177.66,99.4654 C177.755,99.4654 177.85,99.5128 177.898,99.5603 C177.945,99.6077 177.993,99.7026 177.993,99.7975 L177.993,106.299 C177.993,106.394 177.945,106.489 177.898,106.536 C177.85,106.584 177.755,106.631 177.66,106.631 C177.565,106.631 177.471,106.584 177.423,106.536 C177.376,106.489 177.328,106.394 177.328,106.299 L177.328,103.262 Z" style="stroke:none;fill-rule:evenodd;fill:#ffffff;fill-opacity:1;"/>
        </g>
        <g id="Shape14">
            <desc shapeID="14" type="0" basicInfo-basicType="0" basicInfo-roundedRectRadius="12" basicInfo-polygonSides="6" basicInfo-starPoints="5" bounding="rect(-0.47818,-0.498497,0.956368,0.997002)" text="" font-familyName="" font-pixelSize="20" font-bold="0" font-underline="0" font-alignment="1" strokeStyle="0" markerStart="0" markerEnd="0" shadowEnabled="0" shadowOffsetX="0" shadowOffsetY="2" shadowBlur="4" shadowOpacity="160" blurEnabled="0" blurRadius="4" transform="matrix(1,0,0,1,179.704,106.18)" pers-center="0,0" pers-size="0,0" pers-start="0,0" pers-end="0,0" locked="0" mesh="" flag=""/>
            <path id="shapePath14" d="M179.701,106.679 C179.369,106.679 179.226,106.536 179.226,106.204 C179.226,105.872 179.369,105.682 179.701,105.682 C180.033,105.682 180.175,105.872 180.175,106.204 C180.223,106.489 180.033,106.679 179.701,106.679 Z" style="stroke:none;fill-rule:evenodd;fill:#ffffff;fill-opacity:1;"/>
        </g>
        <g id="Shape15">
            <desc shapeID="15" type="0" basicInfo-basicType="0" basicInfo-roundedRectRadius="12" basicInfo-polygonSides="6" basicInfo-starPoints="5" bounding="rect(-1.9695,-2.515,3.939,5.03)" text="" font-familyName="" font-pixelSize="20" font-bold="0" font-underline="0" font-alignment="1" strokeStyle="0" markerStart="0" markerEnd="0" shadowEnabled="0" shadowOffsetX="0" shadowOffsetY="2" shadowBlur="4" shadowOpacity="160" blurEnabled="0" blurRadius="4" transform="matrix(1,0,0,1,182.904,104.211)" pers-center="0,0" pers-size="0,0" pers-start="0,0" pers-end="0,0" locked="0" mesh="" flag=""/>
            <path id="shapePath15" d="M181.504,106.109 C181.125,105.682 180.935,105.065 180.935,104.211 C180.935,103.357 181.125,102.74 181.504,102.313 C181.884,101.886 182.406,101.696 183.118,101.696 C183.545,101.696 183.877,101.791 184.114,101.933 C184.399,102.075 184.589,102.265 184.731,102.408 C184.779,102.455 184.826,102.55 184.826,102.597 C184.826,102.692 184.779,102.74 184.731,102.835 C184.684,102.882 184.589,102.93 184.494,102.93 C184.399,102.93 184.304,102.882 184.257,102.787 C183.972,102.455 183.592,102.313 183.118,102.313 C182.121,102.313 181.647,102.93 181.647,104.211 C181.647,105.492 182.121,106.109 183.118,106.109 C183.545,106.109 183.924,105.967 184.352,105.635 C184.399,105.587 184.494,105.54 184.541,105.54 C184.636,105.54 184.684,105.587 184.779,105.635 C184.874,105.682 184.874,105.777 184.874,105.872 C184.874,105.967 184.826,106.062 184.731,106.157 C184.257,106.536 183.735,106.726 183.165,106.726 C182.406,106.726 181.836,106.489 181.504,106.109 Z" style="stroke:none;fill-rule:evenodd;fill:#ffffff;fill-opacity:1;"/>
        </g>
        <g id="Shape16">
            <desc shapeID="16" type="0" basicInfo-basicType="0" basicInfo-roundedRectRadius="12" basicInfo-polygonSides="6" basicInfo-starPoints="5" bounding="rect(-2.1865,-2.515,4.37299,5.03)" text="" font-familyName="" font-pixelSize="20" font-bold="0" font-underline="0" font-alignment="1" strokeStyle="0" markerStart="0" markerEnd="0" shadowEnabled="0" shadowOffsetX="0" shadowOffsetY="2" shadowBlur="4" shadowOpacity="160" blurEnabled="0" blurRadius="4" transform="matrix(1,0,0,1,187.765,104.211)" pers-center="0,0" pers-size="0,0" pers-start="0,0" pers-end="0,0" locked="0" mesh="" flag=""/>
            <path id="shapePath16" d="M186.155,102.313 C186.534,101.886 187.104,101.696 187.768,101.696 C188.48,101.696 189.002,101.886 189.382,102.313 C189.761,102.74 189.951,103.357 189.951,104.211 C189.951,105.065 189.761,105.682 189.382,106.109 C189.002,106.536 188.433,106.726 187.768,106.726 C187.056,106.726 186.534,106.536 186.155,106.109 C185.775,105.682 185.585,105.065 185.585,104.211 C185.538,103.357 185.728,102.74 186.155,102.313 M187.768,106.109 C188.765,106.109 189.287,105.492 189.287,104.211 C189.287,102.93 188.765,102.313 187.768,102.313 C186.772,102.313 186.25,102.93 186.25,104.211 C186.25,105.492 186.724,106.109 187.768,106.109 Z" style="stroke:none;fill-rule:evenodd;fill:#ffffff;fill-opacity:1;"/>
        </g>
        <g id="Shape17">
            <desc shapeID="17" type="0" basicInfo-basicType="0" basicInfo-roundedRectRadius="12" basicInfo-polygonSides="6" basicInfo-starPoints="5" bounding="rect(-3.58301,-2.49149,7.166,4.98299)" text="" font-familyName="" font-pixelSize="20" font-bold="0" font-underline="0" font-alignment="1" strokeStyle="0" markerStart="0" markerEnd="0" shadowEnabled="0" shadowOffsetX="0" shadowOffsetY="2" shadowBlur="4" shadowOpacity="160" blurEnabled="0" blurRadius="4" transform="matrix(1,0,0,1,194.673,104.139)" pers-center="0,0" pers-size="0,0" pers-start="0,0" pers-end="0,0" locked="0" mesh="" flag=""/>
            <path id="shapePath17" d="M196.263,101.648 C197.592,101.648 198.256,102.265 198.256,103.499 L198.256,106.299 C198.256,106.394 198.208,106.489 198.161,106.536 C198.114,106.584 198.019,106.631 197.924,106.631 C197.829,106.631 197.734,106.584 197.686,106.536 C197.639,106.489 197.592,106.394 197.592,106.299 L197.592,103.641 C197.592,103.214 197.497,102.835 197.307,102.597 C197.117,102.36 196.785,102.218 196.31,102.218 C195.883,102.218 195.551,102.313 195.314,102.55 C195.076,102.787 194.981,103.072 194.981,103.499 L194.981,106.299 C194.981,106.394 194.934,106.489 194.887,106.536 C194.839,106.584 194.744,106.631 194.649,106.631 C194.554,106.631 194.459,106.584 194.412,106.536 C194.365,106.489 194.317,106.394 194.317,106.299 L194.317,103.641 C194.317,103.167 194.222,102.835 194.032,102.597 C193.843,102.36 193.51,102.218 193.036,102.218 C192.182,102.218 191.755,102.692 191.755,103.689 L191.755,106.299 C191.755,106.394 191.707,106.489 191.66,106.536 C191.612,106.584 191.517,106.631 191.422,106.631 C191.327,106.631 191.233,106.584 191.185,106.536 C191.138,106.489 191.09,106.394 191.09,106.299 L191.09,102.028 C191.09,101.933 191.138,101.838 191.185,101.791 C191.233,101.743 191.327,101.696 191.422,101.696 C191.517,101.696 191.612,101.743 191.66,101.791 C191.707,101.838 191.755,101.933 191.755,102.028 L191.755,102.36 C191.849,102.17 192.039,101.98 192.277,101.838 C192.514,101.696 192.799,101.648 193.131,101.648 C193.937,101.648 194.507,101.886 194.792,102.36 C195.029,101.933 195.551,101.648 196.263,101.648 Z" style="stroke:none;fill-rule:evenodd;fill:#ffffff;fill-opacity:1;"/>
        </g>
        <g id="Shape18">
            <desc shapeID="18" type="0" basicInfo-basicType="0" basicInfo-roundedRectRadius="12" basicInfo-polygonSides="6" basicInfo-starPoints="5" bounding="rect(-2.94249,-3.89115,5.88499,7.7823)" text="" font-familyName="" font-pixelSize="20" font-bold="0" font-underline="0" font-alignment="1" strokeStyle="0" markerStart="0" markerEnd="0" shadowEnabled="0" shadowOffsetX="0" shadowOffsetY="2" shadowBlur="4" shadowOpacity="160" blurEnabled="0" blurRadius="4" transform="matrix(1,0,0,1,143.777,102.977)" pers-center="0,0" pers-size="0,0" pers-start="0,0" pers-end="0,0" locked="0" mesh="" flag=""/>
            <path id="shapePath18" d="M146.435,106.251 L146.482,106.726 C146.482,106.726 144.774,106.868 143.682,106.868 C141.452,106.868 140.835,105.397 140.835,102.977 C140.835,99.9874 142.164,99.0857 143.872,99.0857 C145.723,99.0857 146.72,100.082 146.72,102.692 L146.72,103.167 L141.357,103.167 C141.357,105.255 141.879,106.394 143.635,106.394 C144.726,106.394 146.435,106.251 146.435,106.251 M146.198,102.692 C146.198,100.367 145.438,99.5603 143.872,99.5603 C142.354,99.5603 141.405,100.415 141.405,102.692 L146.198,102.692 Z" style="stroke:none;fill-rule:evenodd;fill:#ffffff;fill-opacity:1;"/>
        </g>
        <g id="Shape19">
            <desc shapeID="19" type="0" basicInfo-basicType="0" basicInfo-roundedRectRadius="12" basicInfo-polygonSides="6" basicInfo-starPoints="5" bounding="rect(-2.3015,-5.0775,4.603,10.155)" text="" font-familyName="" font-pixelSize="20" font-bold="0" font-underline="0" font-alignment="1" strokeStyle="0" markerStart="0" markerEnd="0" shadowEnabled="0" shadowOffsetX="0" shadowOffsetY="2" shadowBlur="4" shadowOpacity="160" blurEnabled="0" blurRadius="4" transform="matrix(1,0,0,1,150.208,101.79)" pers-center="0,0" pers-size="0,0" pers-start="0,0" pers-end="0,0" locked="0" mesh="" flag=""/>
            <path id="shapePath19" d="M149.614,99.6552 L149.614,103.594 C149.614,105.824 149.804,106.394 150.991,106.394 C151.418,106.394 152.462,106.251 152.462,106.251 L152.509,106.726 C152.509,106.726 151.513,106.868 150.991,106.868 C149.614,106.868 149.092,106.346 149.092,104.163 L149.092,99.6552 L147.906,99.6552 L147.906,99.1806 L149.092,99.1806 L149.092,96.713 L149.614,96.713 L149.614,99.1806 L152.367,99.1806 L152.367,99.6552 L149.614,99.6552 Z" style="stroke:none;fill-rule:evenodd;fill:#ffffff;fill-opacity:1;"/>
        </g>
        <g id="Shape20">
            <desc shapeID="20" type="0" basicInfo-basicType="0" basicInfo-roundedRectRadius="12" basicInfo-polygonSides="6" basicInfo-starPoints="5" bounding="rect(-2.84731,-5.59949,5.69462,11.199)" text="" font-familyName="" font-pixelSize="20" font-bold="0" font-underline="0" font-alignment="1" strokeStyle="0" markerStart="0" markerEnd="0" shadowEnabled="0" shadowOffsetX="0" shadowOffsetY="2" shadowBlur="4" shadowOpacity="160" blurEnabled="0" blurRadius="4" transform="matrix(1,0,0,1,4.59135,104.4)" pers-center="0,0" pers-size="0,0" pers-start="0,0" pers-end="0,0" locked="0" mesh="" flag=""/>
            <path id="shapePath20" d="M1.74404,98.9433 L2.26605,98.9433 L2.26605,99.5603 C2.26605,99.5603 3.49988,98.801 4.87608,98.801 C6.72683,98.801 7.43866,100.035 7.43866,102.597 C7.43866,105.397 6.58447,106.631 4.25916,106.631 C3.45243,106.631 2.59823,106.489 2.26605,106.441 L2.26605,110 L1.74404,110 L1.74404,98.9433 M2.26605,100.082 L2.26605,105.919 C2.59823,105.967 3.45243,106.109 4.25916,106.109 C6.20482,106.109 6.91665,105.113 6.91665,102.55 C6.91665,100.13 6.20482,99.2281 4.87608,99.2281 C3.54734,99.2281 2.26605,100.082 2.26605,100.082 Z" style="stroke:none;fill-rule:evenodd;fill:#ffffff;fill-opacity:1;"/>
        </g>
        <g id="Shape21">
            <desc shapeID="21" type="0" basicInfo-basicType="0" basicInfo-roundedRectRadius="12" basicInfo-polygonSides="6" basicInfo-starPoints="5" bounding="rect(-1.75586,-3.844,3.51171,7.688)" text="" font-familyName="" font-pixelSize="20" font-bold="0" font-underline="0" font-alignment="1" strokeStyle="0" markerStart="0" markerEnd="0" shadowEnabled="0" shadowOffsetX="0" shadowOffsetY="2" shadowBlur="4" shadowOpacity="160" blurEnabled="0" blurRadius="4" transform="matrix(1,0,0,1,11.2825,102.645)" pers-center="0,0" pers-size="0,0" pers-start="0,0" pers-end="0,0" locked="0" mesh="" flag=""/>
            <path id="shapePath21" d="M9.52669,98.9433 L10.0487,98.9433 L10.0487,100.13 C10.0487,100.13 11.3775,99.1332 13.0384,98.801 L13.0384,99.323 C11.5673,99.6077 10.0487,100.604 10.0487,100.604 L10.0487,106.489 L9.52669,106.489 L9.52669,98.9433 Z" style="stroke:none;fill-rule:evenodd;fill:#ffffff;fill-opacity:1;"/>
        </g>
        <g id="Shape22">
            <desc shapeID="22" type="0" basicInfo-basicType="0" basicInfo-roundedRectRadius="12" basicInfo-polygonSides="6" basicInfo-starPoints="5" bounding="rect(-2.9422,-5.57595,5.8844,11.1519)" text="" font-familyName="" font-pixelSize="20" font-bold="0" font-underline="0" font-alignment="1" strokeStyle="0" markerStart="0" markerEnd="0" shadowEnabled="0" shadowOffsetX="0" shadowOffsetY="2" shadowBlur="4" shadowOpacity="160" blurEnabled="0" blurRadius="4" transform="matrix(1,0,0,1,16.8348,101.055)" pers-center="0,0" pers-size="0,0" pers-start="0,0" pers-end="0,0" locked="0" mesh="" flag=""/>
            <path id="shapePath22" d="M19.4923,106.014 L19.5398,106.489 C19.5398,106.489 17.8314,106.631 16.7399,106.631 C14.5095,106.631 13.8926,105.16 13.8926,102.74 C13.8926,99.7501 15.2213,98.8484 16.9297,98.8484 C18.7805,98.8484 19.777,99.845 19.777,102.455 L19.777,102.93 L14.4621,102.93 C14.4621,105.018 14.9841,106.157 16.7399,106.157 C17.8314,106.157 19.4923,106.014 19.4923,106.014 M19.255,102.455 C19.255,100.13 18.4958,99.323 16.9297,99.323 C15.4112,99.323 14.4621,100.177 14.4621,102.455 L19.255,102.455 M18.4958,95.4791 L18.733,95.9537 L15.8383,97.3299 L15.601,96.9028 L18.4958,95.4791 Z" style="stroke:none;fill-rule:evenodd;fill:#ffffff;fill-opacity:1;"/>
        </g>
        <g id="Shape23">
            <desc shapeID="23" type="0" basicInfo-basicType="0" basicInfo-roundedRectRadius="12" basicInfo-polygonSides="6" basicInfo-starPoints="5" bounding="rect(-2.70495,-3.91531,5.4099,7.8306)" text="" font-familyName="" font-pixelSize="20" font-bold="0" font-underline="0" font-alignment="1" strokeStyle="0" markerStart="0" markerEnd="0" shadowEnabled="0" shadowOffsetX="0" shadowOffsetY="2" shadowBlur="4" shadowOpacity="160" blurEnabled="0" blurRadius="4" transform="matrix(1,0,0,1,24.0954,102.764)" pers-center="0,0" pers-size="0,0" pers-start="0,0" pers-end="0,0" locked="0" mesh="" flag=""/>
            <path id="shapePath23" d="M26.5157,99.5603 C26.5157,99.5603 24.9971,99.323 23.9531,99.323 C23.004,99.323 21.9125,99.6077 21.9125,100.841 C21.9125,101.791 22.3396,102.075 24.048,102.313 C26.0411,102.645 26.8004,102.93 26.8004,104.353 C26.8004,106.109 25.7089,106.679 23.9531,106.679 C23.0989,106.679 21.4854,106.441 21.4854,106.441 L21.5329,105.967 C21.5329,105.967 23.1464,106.204 23.9531,106.204 C25.3768,106.204 26.2784,105.872 26.2784,104.401 C26.2784,103.309 25.7564,103.119 23.9531,102.835 C22.1973,102.55 21.3905,102.265 21.3905,100.889 C21.3905,99.2755 22.7667,98.8484 23.9531,98.8484 C25.092,98.8484 26.5631,99.0857 26.5631,99.0857 L26.5157,99.5603 Z" style="stroke:none;fill-rule:evenodd;fill:#ffffff;fill-opacity:1;"/>
        </g>
        <g id="Shape24">
            <desc shapeID="24" type="0" basicInfo-basicType="0" basicInfo-roundedRectRadius="12" basicInfo-polygonSides="6" basicInfo-starPoints="5" bounding="rect(-2.94225,-3.8913,5.8845,7.7826)" text="" font-familyName="" font-pixelSize="20" font-bold="0" font-underline="0" font-alignment="1" strokeStyle="0" markerStart="0" markerEnd="0" shadowEnabled="0" shadowOffsetX="0" shadowOffsetY="2" shadowBlur="4" shadowOpacity="160" blurEnabled="0" blurRadius="4" transform="matrix(1,0,0,1,31.4035,102.74)" pers-center="0,0" pers-size="0,0" pers-start="0,0" pers-end="0,0" locked="0" mesh="" flag=""/>
            <path id="shapePath24" d="M34.061,106.014 L34.1085,106.489 C34.1085,106.489 32.4001,106.631 31.3086,106.631 C29.0783,106.631 28.4613,105.16 28.4613,102.74 C28.4613,99.7501 29.7901,98.8484 31.4985,98.8484 C33.3492,98.8484 34.3458,99.845 34.3458,102.455 L34.3458,102.93 L28.9833,102.93 C28.9833,105.018 29.5054,106.157 31.2612,106.157 C32.3527,106.157 34.061,106.014 34.061,106.014 M33.7763,102.455 C33.7763,100.13 33.017,99.323 31.451,99.323 C29.9324,99.323 28.9833,100.177 28.9833,102.455 L33.7763,102.455 Z" style="stroke:none;fill-rule:evenodd;fill:#ffffff;fill-opacity:1;"/>
        </g>
        <g id="Shape25">
            <desc shapeID="25" type="0" basicInfo-basicType="0" basicInfo-roundedRectRadius="12" basicInfo-polygonSides="6" basicInfo-starPoints="5" bounding="rect(-2.8236,-3.844,5.6472,7.688)" text="" font-familyName="" font-pixelSize="20" font-bold="0" font-underline="0" font-alignment="1" strokeStyle="0" markerStart="0" markerEnd="0" shadowEnabled="0" shadowOffsetX="0" shadowOffsetY="2" shadowBlur="4" shadowOpacity="160" blurEnabled="0" blurRadius="4" transform="matrix(1,0,0,1,39.1625,102.645)" pers-center="0,0" pers-size="0,0" pers-start="0,0" pers-end="0,0" locked="0" mesh="" flag=""/>
            <path id="shapePath25" d="M36.3389,106.489 L36.3389,98.9433 L36.8609,98.9433 L36.8609,99.5603 C36.8609,99.5603 38.1896,98.801 39.5184,98.801 C41.559,98.801 41.9861,99.6077 41.9861,102.55 L41.9861,106.489 L41.464,106.489 L41.464,102.597 C41.464,100.035 41.1793,99.2755 39.5184,99.2755 C38.1896,99.2755 36.8609,100.035 36.8609,100.035 L36.8609,106.489 L36.3389,106.489 Z" style="stroke:none;fill-rule:evenodd;fill:#ffffff;fill-opacity:1;"/>
        </g>
        <g id="Shape26">
            <desc shapeID="26" type="0" basicInfo-basicType="0" basicInfo-roundedRectRadius="12" basicInfo-polygonSides="6" basicInfo-starPoints="5" bounding="rect(-2.30155,-5.07764,4.6031,10.1553)" text="" font-familyName="" font-pixelSize="20" font-bold="0" font-underline="0" font-alignment="1" strokeStyle="0" markerStart="0" markerEnd="0" shadowEnabled="0" shadowOffsetX="0" shadowOffsetY="2" shadowBlur="4" shadowOpacity="160" blurEnabled="0" blurRadius="4" transform="matrix(1,0,0,1,45.7588,101.553)" pers-center="0,0" pers-size="0,0" pers-start="0,0" pers-end="0,0" locked="0" mesh="" flag=""/>
            <path id="shapePath26" d="M45.1656,99.4179 L45.1656,103.357 C45.1656,105.587 45.3079,106.157 46.5418,106.157 C46.9688,106.157 48.0129,106.014 48.0129,106.014 L48.0603,106.489 C48.0603,106.489 47.0638,106.631 46.5418,106.631 C45.1656,106.631 44.6435,106.109 44.6435,103.926 L44.6435,99.4179 L43.4572,99.4179 L43.4572,98.9433 L44.6435,98.9433 L44.6435,96.4757 L45.1656,96.4757 L45.1656,98.9433 L47.9179,98.9433 L47.9179,99.4179 L45.1656,99.4179 Z" style="stroke:none;fill-rule:evenodd;fill:#ffffff;fill-opacity:1;"/>
        </g>
        <g id="Shape27">
            <desc shapeID="27" type="0" basicInfo-basicType="0" basicInfo-roundedRectRadius="12" basicInfo-polygonSides="6" basicInfo-starPoints="5" bounding="rect(-2.9422,-5.57595,5.8844,11.1519)" text="" font-familyName="" font-pixelSize="20" font-bold="0" font-underline="0" font-alignment="1" strokeStyle="0" markerStart="0" markerEnd="0" shadowEnabled="0" shadowOffsetX="0" shadowOffsetY="2" shadowBlur="4" shadowOpacity="160" blurEnabled="0" blurRadius="4" transform="matrix(1,0,0,1,51.9991,101.055)" pers-center="0,0" pers-size="0,0" pers-start="0,0" pers-end="0,0" locked="0" mesh="" flag=""/>
            <path id="shapePath27" d="M54.6566,106.014 L54.704,106.489 C54.704,106.489 52.9957,106.631 51.9042,106.631 C49.6738,106.631 49.0569,105.16 49.0569,102.74 C49.0569,99.7501 50.3856,98.8484 52.094,98.8484 C53.9448,98.8484 54.9413,99.845 54.9413,102.455 L54.9413,102.93 L49.6263,102.93 C49.6263,105.018 50.1483,106.157 51.9042,106.157 C52.9482,106.157 54.6566,106.014 54.6566,106.014 M54.4193,102.455 C54.4193,100.13 53.66,99.323 52.094,99.323 C50.5754,99.323 49.6263,100.177 49.6263,102.455 L54.4193,102.455 M53.66,95.4791 L53.8973,95.9537 L51.0025,97.3299 L50.7653,96.9028 L53.66,95.4791 Z" style="stroke:none;fill-rule:evenodd;fill:#ffffff;fill-opacity:1;"/>
        </g>
        <g id="Shape28">
            <desc shapeID="28" type="0" basicInfo-basicType="0" basicInfo-roundedRectRadius="12" basicInfo-polygonSides="6" basicInfo-starPoints="5" bounding="rect(-2.8473,-5.59949,5.6946,11.199)" text="" font-familyName="" font-pixelSize="20" font-bold="0" font-underline="0" font-alignment="1" strokeStyle="0" markerStart="0" markerEnd="0" shadowEnabled="0" shadowOffsetX="0" shadowOffsetY="2" shadowBlur="4" shadowOpacity="160" blurEnabled="0" blurRadius="4" transform="matrix(1,0,0,1,63.1036,104.4)" pers-center="0,0" pers-size="0,0" pers-start="0,0" pers-end="0,0" locked="0" mesh="" flag=""/>
            <path id="shapePath28" d="M60.2563,98.9433 L60.7783,98.9433 L60.7783,99.5603 C60.7783,99.5603 62.0121,98.801 63.3883,98.801 C65.2391,98.801 65.9509,100.035 65.9509,102.597 C65.9509,105.397 65.0967,106.631 62.7714,106.631 C61.9647,106.631 61.1105,106.489 60.7783,106.441 L60.7783,110 L60.2563,110 L60.2563,98.9433 M60.7783,100.082 L60.7783,105.919 C61.1105,105.967 61.9647,106.109 62.7714,106.109 C64.7171,106.109 65.4289,105.113 65.4289,102.55 C65.4289,100.13 64.7171,99.2281 63.3883,99.2281 C62.0596,99.2281 60.7783,100.082 60.7783,100.082 Z" style="stroke:none;fill-rule:evenodd;fill:#ffffff;fill-opacity:1;"/>
        </g>
        <g id="Shape29">
            <desc shapeID="29" type="0" basicInfo-basicType="0" basicInfo-roundedRectRadius="12" basicInfo-polygonSides="6" basicInfo-starPoints="5" bounding="rect(-3.32185,-3.91531,6.6437,7.8306)" text="" font-familyName="" font-pixelSize="20" font-bold="0" font-underline="0" font-alignment="1" strokeStyle="0" markerStart="0" markerEnd="0" shadowEnabled="0" shadowOffsetX="0" shadowOffsetY="2" shadowBlur="4" shadowOpacity="160" blurEnabled="0" blurRadius="4" transform="matrix(1,0,0,1,70.8862,102.764)" pers-center="0,0" pers-size="0,0" pers-start="0,0" pers-end="0,0" locked="0" mesh="" flag=""/>
            <path id="shapePath29" d="M73.0692,105.54 C73.1166,105.967 73.6861,106.109 74.2081,106.157 L74.1607,106.631 C73.4963,106.631 72.9268,106.441 72.5946,106.014 C72.5946,106.014 71.0761,106.679 69.5575,106.679 C68.3237,106.679 67.5644,105.919 67.5644,104.496 C67.5644,103.214 68.1813,102.455 69.6524,102.313 L72.4997,102.028 L72.4997,101.221 C72.4997,99.8924 71.9303,99.3704 70.8388,99.3704 C69.7473,99.3704 67.9915,99.6077 67.9915,99.6077 L67.944,99.1332 C67.944,99.1332 69.6524,98.8484 70.8388,98.8484 C72.3574,98.8484 73.0217,99.6552 73.0217,101.221 L73.0217,105.54 L73.0692,105.54 M69.7473,102.74 C68.5609,102.882 68.1813,103.404 68.1813,104.448 C68.1813,105.54 68.7033,106.157 69.605,106.157 C71.0286,106.157 72.5472,105.54 72.5472,105.54 L72.5472,102.455 L69.7473,102.74 Z" style="stroke:none;fill-rule:evenodd;fill:#ffffff;fill-opacity:1;"/>
        </g>
        <g id="Shape30">
            <desc shapeID="30" type="0" basicInfo-basicType="0" basicInfo-roundedRectRadius="12" basicInfo-polygonSides="6" basicInfo-starPoints="5" bounding="rect(-1.75585,-3.844,3.5117,7.688)" text="" font-familyName="" font-pixelSize="20" font-bold="0" font-underline="0" font-alignment="1" strokeStyle="0" markerStart="0" markerEnd="0" shadowEnabled="0" shadowOffsetX="0" shadowOffsetY="2" shadowBlur="4" shadowOpacity="160" blurEnabled="0" blurRadius="4" transform="matrix(1,0,0,1,77.2926,102.645)" pers-center="0,0" pers-size="0,0" pers-start="0,0" pers-end="0,0" locked="0" mesh="" flag=""/>
            <path id="shapePath30" d="M75.5368,98.9433 L76.0589,98.9433 L76.0589,100.13 C76.0589,100.13 77.3876,99.1332 79.0485,98.801 L79.0485,99.323 C77.5774,99.6077 76.0589,100.604 76.0589,100.604 L76.0589,106.489 L75.5368,106.489 L75.5368,98.9433 Z" style="stroke:none;fill-rule:evenodd;fill:#ffffff;fill-opacity:1;"/>
        </g>
    </g>
</svg>
