<?xml version="1.0" encoding="utf-8"?><svg xmlns="http://www.w3.org/2000/svg" xmlns:xlink="http://www.w3.org/1999/xlink"><symbol viewBox="0 0 200 110" id="bdc"><path d="M61.188 35.755c0-5.653-2.292-11-6.264-15.738 6.57-1.834 13.752-2.903 21.545-3.21v-1.985c-8.405 0-16.35 1.07-23.533 2.75C42.547 7.182 23.14 0 .832 0v7.946c16.808.61 31.477 5.96 40.492 13.6-15.28 6.57-25.365 17.113-25.365 29.03 0 5.655 2.29 11.003 6.264 15.74C15.654 68.15 8.472 69.22.68 69.526v1.985c8.403 0 16.35-1.07 23.53-2.75 10.544 10.544 29.95 17.726 52.106 17.726V78.54c-16.808-.61-31.477-5.96-40.493-13.6 15.433-6.57 25.365-17.113 25.365-29.184M26.35 46.91c0-9.474 6.723-17.42 17.572-22.767 4.43 4.584 6.876 9.932 6.876 15.433 0 9.473-6.723 17.42-17.572 22.767-4.28-4.584-6.876-9.78-6.876-15.433M122.003 48.285h13.905c13.294 0 22.615 4.126 22.615 18.948 0 14.21-9.627 19.253-22.615 19.253h-13.905v-38.2m10.238 30.712h3.974c7.64 0 11.918-3.973 11.918-11.613s-4.43-11.613-11.918-11.613h-3.973V79M193.21 85.57c-2.904.763-6.113 1.527-11.308 1.527-10.238 0-22.004-5.195-22.004-19.56 0-13.293 9.32-19.863 21.85-19.863 3.82 0 7.64.917 11.308 1.987l-.764 8.252c-3.362-1.834-6.418-2.75-9.932-2.75-7.182 0-11.92 5.195-11.92 12.376 0 7.488 5.35 12.072 12.837 12.072 3.36 0 6.723-.917 9.473-1.987l.46 7.946M86.86 48.285h20.17c7.18 0 12.376 3.056 12.376 9.627 0 4.89-2.445 7.487-6.723 8.862v.153c5.042 1.07 7.792 3.82 7.792 8.404 0 9.17-8.098 11.003-14.974 11.003H86.86V48.285m10.237 31.02h5.5c3.668 0 7.64-.612 7.64-4.432 0-4.126-3.972-4.584-7.487-4.584h-5.653v9.014m0-15.89h5.348c3.36 0 6.723-.765 6.723-3.974 0-3.515-3.362-3.82-6.723-3.82h-5.348v7.793"/><path d="M195.96 70.29l3.36-2.905-.61-.152c-.153-.153-.306-.153-.153-.46l.458-2.138-1.528.458c-.305.153-.458.153-.61-.152l-.306-.61-1.527 2.29c-.306.46-.612.154-.612-.15l.613-3.974-1.07.764c-.306.153-.46 0-.61-.153l-1.224-2.598-1.223 2.597c-.153.153-.306.306-.61.153l-1.07-.764.61 3.973c.153.457-.305.61-.61.15l-1.53-2.29-.305.61c-.152.306-.305.306-.61.153l-1.53-.458.46 2.14c0 .305 0 .458-.153.458l-.612.152 3.36 2.904c.46.457.46.457.307 1.068l-.306.61 3.055-.61c.61-.153.46.306.46.306l-.154 3.514H192.14l-.154-3.514s-.152-.46.46-.306l3.055.61-.305-.61c.306-.764.306-.61.764-1.07"/></symbol><symbol viewBox="0 0 24 24" id="check"><path d="M20.285 2L9 13.567l-5.286-5.01L0 12.27 9 21 24 5.715z"/></symbol><symbol viewBox="0 0 200 72" id="waq"><path d="M.23 70.666V1.433h10.077V57.65h.24l27.24-40.982 10.03-15.235V57.65h.096l37.46-56.217h12.488L50.13 70.666H37.79V34.314L12.573 70.666H.23M123.607 1.53v69.136H113.53v-56.12h-.096L76.07 70.667H63.726l47.49-69.137h12.39M151.28 4.133c-4.242 1.784-7.955 4.243-11.088 7.376-3.134 3.133-5.593 6.797-7.424 11.04-1.833 4.195-2.7 8.727-2.7 13.596 0 4.725.915 9.21 2.7 13.355 1.83 4.196 4.29 7.86 7.472 10.994 3.182 3.133 6.846 5.592 11.09 7.424 4.193 1.832 8.725 2.7 13.498 2.7 5.256 0 10.076-1.012 14.464-3.037l-5.255-7.57c-2.7 1.158-5.785 1.737-9.21 1.737-5.206 0-9.786-1.302-13.69-3.905-3.906-2.604-6.895-6.268-9.017-11.04a33.725 33.725 0 0 1-1.59-5.304 26.03 26.03 0 0 1-.58-5.4c0-1.93.193-3.76.58-5.593.385-1.832.916-3.52 1.59-5.11 2.025-4.822 5.014-8.534 8.968-11.186 3.953-2.652 8.533-3.954 13.74-3.954 3.616 0 6.943.675 10.03 2.073 3.036 1.397 5.688 3.277 7.906 5.64a25.116 25.116 0 0 1 5.158 8.244c1.206 3.134 1.833 6.51 1.833 10.077 0 3.038-.53 5.98-1.543 8.968-.965 2.46-2.074 4.532-3.327 6.17a19.86 19.86 0 0 1-2.99 3.617 32.9 32.9 0 0 1-3.567 2.845l3.423 4.773 1.736 2.507 3.76 5.448h11.09l-7.955-11.234c2.894-2.99 5.16-6.508 6.8-10.462 1.638-3.953 2.458-8.196 2.458-12.68 0-4.87-.868-9.4-2.652-13.595-1.784-4.195-4.242-7.907-7.377-11.04-3.134-3.135-6.846-5.594-11.09-7.426-4.29-1.83-8.822-2.747-13.692-2.747-4.773 0-9.305.916-13.548 2.7"/></symbol></svg>