<svg xmlns="http://www.w3.org/2000/svg" viewBox="0 0 200 150"><g name="Layer 1"><path d="m42.7382 10.7461c-8.5476 3.594-16.0268 8.5479-22.3393 14.8614-6.3145 6.3137-11.26791 13.6958-14.95836 22.2437-3.69252 8.4506-5.44054 17.5812-5.44054 27.3915 0 9.5191 1.84624 18.5527 5.44054 26.9063 3.69045 8.45 8.64386 15.833 15.05456 22.146 6.4107 6.314 13.7937 11.268 22.3413 14.959 8.4495 3.691 17.5804 5.439 27.1965 5.439 10.5884 0 20.3007-2.04 29.141-6.119l-10.5883-15.25c-5.4385 2.331-11.6548 3.497-18.5527 3.497-10.4901 0-19.7173-2.623-27.5853-7.868-7.8681-5.245-13.89-12.627-18.1638-22.2437-1.3591-3.4969-2.4296-6.9937-3.2053-10.6846-.7779-3.6911-1.1668-7.2851-1.1668-10.879 0-3.8853.3889-7.5764 1.1668-11.2675.7757-3.6911 1.8462-7.0909 3.2053-10.2962 4.0794-9.7134 10.1012-17.1925 18.0675-22.535 7.9643-5.3423 17.1915-7.9649 27.6816-7.9649 7.2848 0 13.9882 1.3599 20.2045 4.1768 6.1201 2.8168 11.4626 6.6049 15.9306 11.3645 4.466 4.7595 7.964 10.2962 10.392 16.61 2.429 6.3135 3.692 13.1129 3.692 20.3008 0 6.1195-1.068 12.0445-3.109 18.0669-1.942 4.9538-4.177 9.1309-6.701 12.4329-1.75 2.72-3.789 5.148-6.024 7.285-2.331 2.137-4.6607 3.983-7.1865 5.731l6.8955 9.616 3.496 5.051 7.578 10.976h22.341l-16.029-22.632c5.83-6.022 10.394-13.113 13.698-21.078 3.301-7.9648 4.953-16.5124 4.953-25.546 0-9.8104-1.748-18.9409-5.342-27.3916-3.594-8.4506-8.548-15.93-14.862-22.2437-6.313-6.3135-13.792-11.2674-22.3396-14.9585-8.6459-3.69104-17.7769-5.53657-27.5875-5.53657-9.6161 0-18.747 1.84553-27.2947 5.43947" fill="#fff" fill-rule="evenodd"/></g></svg>
